<mxfile host="app.diagrams.net" modified="2023-11-20T02:28:50.133Z" agent="Mozilla/5.0 (Windows NT 10.0; Win64; x64) AppleWebKit/537.36 (KHTML, like Gecko) Chrome/116.0.0.0 Safari/537.36 OPR/102.0.0.0" etag="94Tds7FT-PGoAZ1mz22e" version="22.1.3" type="device">
  <diagram name="Página-1" id="QKevh20zijrpoHFjILLP">
    <mxGraphModel dx="3360" dy="1393" grid="1" gridSize="10" guides="1" tooltips="1" connect="1" arrows="1" fold="1" page="1" pageScale="1" pageWidth="827" pageHeight="1169" math="0" shadow="0">
      <root>
        <mxCell id="0" />
        <mxCell id="1" parent="0" />
        <mxCell id="_Bd6D42fP3kql52XD8L3-8" value="Demonic Destruction" style="html=1;whiteSpace=wrap;" vertex="1" parent="1">
          <mxGeometry x="640" y="30" width="110" height="50" as="geometry" />
        </mxCell>
        <mxCell id="_Bd6D42fP3kql52XD8L3-62" style="edgeStyle=orthogonalEdgeStyle;rounded=0;orthogonalLoop=1;jettySize=auto;html=1;entryX=1;entryY=0.25;entryDx=0;entryDy=0;" edge="1" parent="1" source="_Bd6D42fP3kql52XD8L3-10" target="_Bd6D42fP3kql52XD8L3-55">
          <mxGeometry relative="1" as="geometry" />
        </mxCell>
        <mxCell id="_Bd6D42fP3kql52XD8L3-10" value="Texturas" style="html=1;whiteSpace=wrap;" vertex="1" parent="1">
          <mxGeometry x="1220" y="40" width="110" height="50" as="geometry" />
        </mxCell>
        <mxCell id="_Bd6D42fP3kql52XD8L3-87" style="edgeStyle=orthogonalEdgeStyle;rounded=0;orthogonalLoop=1;jettySize=auto;html=1;entryX=0.5;entryY=1;entryDx=0;entryDy=0;" edge="1" parent="1" source="_Bd6D42fP3kql52XD8L3-16" target="_Bd6D42fP3kql52XD8L3-8">
          <mxGeometry relative="1" as="geometry" />
        </mxCell>
        <mxCell id="_Bd6D42fP3kql52XD8L3-16" value="CodigoJuego" style="shape=folder;fontStyle=1;spacingTop=10;tabWidth=40;tabHeight=14;tabPosition=left;html=1;whiteSpace=wrap;" vertex="1" parent="1">
          <mxGeometry x="1510" y="170" width="110" height="80" as="geometry" />
        </mxCell>
        <mxCell id="_Bd6D42fP3kql52XD8L3-86" style="edgeStyle=orthogonalEdgeStyle;rounded=0;orthogonalLoop=1;jettySize=auto;html=1;entryX=0.5;entryY=1;entryDx=0;entryDy=0;" edge="1" parent="1" source="_Bd6D42fP3kql52XD8L3-17" target="_Bd6D42fP3kql52XD8L3-8">
          <mxGeometry relative="1" as="geometry" />
        </mxCell>
        <mxCell id="_Bd6D42fP3kql52XD8L3-17" value="Clases" style="shape=folder;fontStyle=1;spacingTop=10;tabWidth=40;tabHeight=14;tabPosition=left;html=1;whiteSpace=wrap;" vertex="1" parent="1">
          <mxGeometry x="240" y="170" width="110" height="80" as="geometry" />
        </mxCell>
        <mxCell id="_Bd6D42fP3kql52XD8L3-19" value="Funcionesjuego" style="swimlane;fontStyle=1;align=center;verticalAlign=top;childLayout=stackLayout;horizontal=1;startSize=26;horizontalStack=0;resizeParent=1;resizeParentMax=0;resizeLast=0;collapsible=1;marginBottom=0;whiteSpace=wrap;html=1;" vertex="1" parent="1">
          <mxGeometry x="-560" y="360" width="180" height="90" as="geometry" />
        </mxCell>
        <mxCell id="_Bd6D42fP3kql52XD8L3-20" value="- tiempo : int" style="text;strokeColor=none;fillColor=default;align=left;verticalAlign=top;spacingLeft=4;spacingRight=4;overflow=hidden;rotatable=0;points=[[0,0.5],[1,0.5]];portConstraint=eastwest;whiteSpace=wrap;html=1;" vertex="1" parent="_Bd6D42fP3kql52XD8L3-19">
          <mxGeometry y="26" width="180" height="26" as="geometry" />
        </mxCell>
        <mxCell id="_Bd6D42fP3kql52XD8L3-21" value="" style="line;strokeWidth=1;fillColor=default;align=left;verticalAlign=middle;spacingTop=-1;spacingLeft=3;spacingRight=3;rotatable=0;labelPosition=right;points=[];portConstraint=eastwest;strokeColor=inherit;" vertex="1" parent="_Bd6D42fP3kql52XD8L3-19">
          <mxGeometry y="52" width="180" height="8" as="geometry" />
        </mxCell>
        <mxCell id="_Bd6D42fP3kql52XD8L3-22" value="+ contadorDeTiempo : void" style="text;strokeColor=none;fillColor=default;align=left;verticalAlign=top;spacingLeft=4;spacingRight=4;overflow=hidden;rotatable=0;points=[[0,0.5],[1,0.5]];portConstraint=eastwest;whiteSpace=wrap;html=1;gradientColor=none;" vertex="1" parent="_Bd6D42fP3kql52XD8L3-19">
          <mxGeometry y="60" width="180" height="30" as="geometry" />
        </mxCell>
        <mxCell id="_Bd6D42fP3kql52XD8L3-67" style="edgeStyle=none;rounded=0;orthogonalLoop=1;jettySize=auto;html=1;exitX=0.75;exitY=0;exitDx=0;exitDy=0;" edge="1" parent="1" source="_Bd6D42fP3kql52XD8L3-23">
          <mxGeometry relative="1" as="geometry">
            <mxPoint x="-173" y="359.5" as="targetPoint" />
          </mxGeometry>
        </mxCell>
        <mxCell id="_Bd6D42fP3kql52XD8L3-23" value="Jugador" style="swimlane;fontStyle=1;align=center;verticalAlign=top;childLayout=stackLayout;horizontal=1;startSize=26;horizontalStack=0;resizeParent=1;resizeParentMax=0;resizeLast=0;collapsible=1;marginBottom=0;whiteSpace=wrap;html=1;" vertex="1" parent="1">
          <mxGeometry x="-330" y="360" width="210" height="300" as="geometry" />
        </mxCell>
        <mxCell id="_Bd6D42fP3kql52XD8L3-24" value="- nombre : String&lt;br&gt;- jugadorVivo : boolean&lt;br&gt;- health : int&lt;br&gt;- damage : int&lt;br&gt;- x : int&lt;br&gt;- y : int" style="text;strokeColor=none;fillColor=default;align=left;verticalAlign=top;spacingLeft=4;spacingRight=4;overflow=hidden;rotatable=0;points=[[0,0.5],[1,0.5]];portConstraint=eastwest;whiteSpace=wrap;html=1;" vertex="1" parent="_Bd6D42fP3kql52XD8L3-23">
          <mxGeometry y="26" width="210" height="94" as="geometry" />
        </mxCell>
        <mxCell id="_Bd6D42fP3kql52XD8L3-25" value="" style="line;strokeWidth=1;fillColor=default;align=left;verticalAlign=middle;spacingTop=-1;spacingLeft=3;spacingRight=3;rotatable=0;labelPosition=right;points=[];portConstraint=eastwest;strokeColor=inherit;" vertex="1" parent="_Bd6D42fP3kql52XD8L3-23">
          <mxGeometry y="120" width="210" height="8" as="geometry" />
        </mxCell>
        <mxCell id="_Bd6D42fP3kql52XD8L3-26" value="+ Jugador()&amp;nbsp;&lt;br&gt;+ isJugadorVivo() : boolean&lt;br&gt;+ setNombre(String) : void&lt;br&gt;+ getNombre() : String&lt;br&gt;+ isJugadorVivo(Jugador) : boolean&lt;br&gt;+ setJugadorMuerto() : void&lt;br&gt;+ gethealth() : int&lt;br&gt;+ sethealth(int) : void&lt;br&gt;+ getDamage() : int&lt;br&gt;+ setDamage(int) : void&lt;br&gt;+ atacar(ArrayList&amp;lt;Monstruo&amp;gt;) : void" style="text;strokeColor=none;fillColor=default;align=left;verticalAlign=top;spacingLeft=4;spacingRight=4;overflow=hidden;rotatable=0;points=[[0,0.5],[1,0.5]];portConstraint=eastwest;whiteSpace=wrap;html=1;gradientColor=none;" vertex="1" parent="_Bd6D42fP3kql52XD8L3-23">
          <mxGeometry y="128" width="210" height="172" as="geometry" />
        </mxCell>
        <mxCell id="_Bd6D42fP3kql52XD8L3-61" style="edgeStyle=orthogonalEdgeStyle;rounded=0;orthogonalLoop=1;jettySize=auto;html=1;entryX=0.5;entryY=1;entryDx=0;entryDy=0;" edge="1" parent="1" source="_Bd6D42fP3kql52XD8L3-31" target="_Bd6D42fP3kql52XD8L3-39">
          <mxGeometry relative="1" as="geometry" />
        </mxCell>
        <mxCell id="_Bd6D42fP3kql52XD8L3-31" value="Monstruo" style="swimlane;fontStyle=1;align=center;verticalAlign=top;childLayout=stackLayout;horizontal=1;startSize=26;horizontalStack=0;resizeParent=1;resizeParentMax=0;resizeLast=0;collapsible=1;marginBottom=0;whiteSpace=wrap;html=1;" vertex="1" parent="1">
          <mxGeometry x="200" y="620" width="210" height="380" as="geometry">
            <mxRectangle x="190" y="320" width="100" height="30" as="alternateBounds" />
          </mxGeometry>
        </mxCell>
        <mxCell id="_Bd6D42fP3kql52XD8L3-32" value="- health : int&lt;br&gt;- damage : int&lt;br&gt;- level : int&lt;br&gt;- monstruoVivo : boolean&lt;br&gt;- tipo : TipoMonstruos&lt;br&gt;- x : int&lt;br&gt;- y : int&lt;br&gt;- ancho : int&lt;br&gt;- alto : int" style="text;strokeColor=none;fillColor=default;align=left;verticalAlign=top;spacingLeft=4;spacingRight=4;overflow=hidden;rotatable=0;points=[[0,0.5],[1,0.5]];portConstraint=eastwest;whiteSpace=wrap;html=1;" vertex="1" parent="_Bd6D42fP3kql52XD8L3-31">
          <mxGeometry y="26" width="210" height="144" as="geometry" />
        </mxCell>
        <mxCell id="_Bd6D42fP3kql52XD8L3-33" value="" style="line;strokeWidth=1;fillColor=default;align=left;verticalAlign=middle;spacingTop=-1;spacingLeft=3;spacingRight=3;rotatable=0;labelPosition=right;points=[];portConstraint=eastwest;strokeColor=inherit;" vertex="1" parent="_Bd6D42fP3kql52XD8L3-31">
          <mxGeometry y="170" width="210" height="8" as="geometry" />
        </mxCell>
        <mxCell id="_Bd6D42fP3kql52XD8L3-34" value="+ Monstruo(TipoMonstruos)&amp;nbsp;&lt;br&gt;+ getX() : int&lt;br&gt;+ getY() : int&lt;br&gt;+ setPosicion(int, int) : void&lt;br&gt;+ setTamaño(int, int) : void&lt;br&gt;+ multiplier(int) : void&lt;br&gt;+ gethealth() : int&lt;br&gt;+ getDamage() : int&lt;br&gt;+ getTipo() : TipoMonstruos&lt;br&gt;+ mostrarInformacion() : void&lt;br&gt;+ estaVivo() : boolean&lt;br&gt;+ recibirDanio(int) : void&lt;br&gt;+ getRectangulo() : Rectangle" style="text;strokeColor=none;fillColor=default;align=left;verticalAlign=top;spacingLeft=4;spacingRight=4;overflow=hidden;rotatable=0;points=[[0,0.5],[1,0.5]];portConstraint=eastwest;whiteSpace=wrap;html=1;gradientColor=none;" vertex="1" parent="_Bd6D42fP3kql52XD8L3-31">
          <mxGeometry y="178" width="210" height="202" as="geometry" />
        </mxCell>
        <mxCell id="_Bd6D42fP3kql52XD8L3-35" value="Movimientopj" style="swimlane;fontStyle=1;align=center;verticalAlign=top;childLayout=stackLayout;horizontal=1;startSize=26;horizontalStack=0;resizeParent=1;resizeParentMax=0;resizeLast=0;collapsible=1;marginBottom=0;whiteSpace=wrap;html=1;" vertex="1" parent="1">
          <mxGeometry x="-70" y="360" width="210" height="220" as="geometry" />
        </mxCell>
        <mxCell id="_Bd6D42fP3kql52XD8L3-36" value="- p : ImageIcon&lt;br&gt;- pj : JLabel&lt;br&gt;- MOVIMIENTO_PASO : int&lt;br&gt;- LIMITE_SUPERIOR : int&lt;br&gt;- LIMITE_INFERIOR : int&lt;br&gt;- LIMITE_IZQUIERDO : int&lt;br&gt;- LIMITE_DERECHO : int" style="text;strokeColor=none;fillColor=default;align=left;verticalAlign=top;spacingLeft=4;spacingRight=4;overflow=hidden;rotatable=0;points=[[0,0.5],[1,0.5]];portConstraint=eastwest;whiteSpace=wrap;html=1;" vertex="1" parent="_Bd6D42fP3kql52XD8L3-35">
          <mxGeometry y="26" width="210" height="114" as="geometry" />
        </mxCell>
        <mxCell id="_Bd6D42fP3kql52XD8L3-37" value="" style="line;strokeWidth=1;fillColor=default;align=left;verticalAlign=middle;spacingTop=-1;spacingLeft=3;spacingRight=3;rotatable=0;labelPosition=right;points=[];portConstraint=eastwest;strokeColor=inherit;" vertex="1" parent="_Bd6D42fP3kql52XD8L3-35">
          <mxGeometry y="140" width="210" height="8" as="geometry" />
        </mxCell>
        <mxCell id="_Bd6D42fP3kql52XD8L3-38" value="+ Movimientopj()&amp;nbsp;&lt;br&gt;+ keyPressed(KeyEvent) : void&lt;br&gt;+ keyTyped(KeyEvent) : void&lt;br&gt;+ keyReleased(KeyEvent) : void&lt;br&gt;" style="text;strokeColor=none;fillColor=default;align=left;verticalAlign=top;spacingLeft=4;spacingRight=4;overflow=hidden;rotatable=0;points=[[0,0.5],[1,0.5]];portConstraint=eastwest;whiteSpace=wrap;html=1;gradientColor=none;" vertex="1" parent="_Bd6D42fP3kql52XD8L3-35">
          <mxGeometry y="148" width="210" height="72" as="geometry" />
        </mxCell>
        <mxCell id="_Bd6D42fP3kql52XD8L3-39" value="Oleadas" style="swimlane;fontStyle=1;align=center;verticalAlign=top;childLayout=stackLayout;horizontal=1;startSize=26;horizontalStack=0;resizeParent=1;resizeParentMax=0;resizeLast=0;collapsible=1;marginBottom=0;whiteSpace=wrap;html=1;" vertex="1" parent="1">
          <mxGeometry x="190" y="360" width="230" height="210" as="geometry" />
        </mxCell>
        <mxCell id="_Bd6D42fP3kql52XD8L3-40" value="- enemigos : ArrayList&amp;lt;Monstruo&amp;gt;&lt;br&gt;- random : Random&lt;br&gt;- MAX_ENEMIGOS : int&lt;br&gt;- DISTANCIA_GENERACION : int" style="text;strokeColor=none;fillColor=default;align=left;verticalAlign=top;spacingLeft=4;spacingRight=4;overflow=hidden;rotatable=0;points=[[0,0.5],[1,0.5]];portConstraint=eastwest;whiteSpace=wrap;html=1;" vertex="1" parent="_Bd6D42fP3kql52XD8L3-39">
          <mxGeometry y="26" width="230" height="74" as="geometry" />
        </mxCell>
        <mxCell id="_Bd6D42fP3kql52XD8L3-41" value="" style="line;strokeWidth=1;fillColor=default;align=left;verticalAlign=middle;spacingTop=-1;spacingLeft=3;spacingRight=3;rotatable=0;labelPosition=right;points=[];portConstraint=eastwest;strokeColor=inherit;" vertex="1" parent="_Bd6D42fP3kql52XD8L3-39">
          <mxGeometry y="100" width="230" height="8" as="geometry" />
        </mxCell>
        <mxCell id="_Bd6D42fP3kql52XD8L3-42" value="+ Oleadas()&amp;nbsp;&lt;br&gt;+ generarEnemigos(int, int) : void&lt;br&gt;+ actualizarEstado(Jugador) : void&lt;br&gt;+ eliminarEnemigosMuertos() : void&lt;br&gt;+ getEnemigos() : ArrayList&amp;lt;Monstruo&amp;gt;&lt;br&gt;+ getMAX_ENEMIGOS() : int" style="text;strokeColor=none;fillColor=default;align=left;verticalAlign=top;spacingLeft=4;spacingRight=4;overflow=hidden;rotatable=0;points=[[0,0.5],[1,0.5]];portConstraint=eastwest;whiteSpace=wrap;html=1;gradientColor=none;" vertex="1" parent="_Bd6D42fP3kql52XD8L3-39">
          <mxGeometry y="108" width="230" height="102" as="geometry" />
        </mxCell>
        <mxCell id="_Bd6D42fP3kql52XD8L3-60" style="edgeStyle=orthogonalEdgeStyle;rounded=0;orthogonalLoop=1;jettySize=auto;html=1;entryX=0.5;entryY=1;entryDx=0;entryDy=0;" edge="1" parent="1" source="_Bd6D42fP3kql52XD8L3-43" target="_Bd6D42fP3kql52XD8L3-31">
          <mxGeometry relative="1" as="geometry" />
        </mxCell>
        <mxCell id="_Bd6D42fP3kql52XD8L3-43" value="TipoMonstruos" style="swimlane;fontStyle=1;align=center;verticalAlign=top;childLayout=stackLayout;horizontal=1;startSize=26;horizontalStack=0;resizeParent=1;resizeParentMax=0;resizeLast=0;collapsible=1;marginBottom=0;whiteSpace=wrap;html=1;" vertex="1" parent="1">
          <mxGeometry x="200" y="1050" width="210" height="90" as="geometry" />
        </mxCell>
        <mxCell id="_Bd6D42fP3kql52XD8L3-44" value="" style="text;strokeColor=none;fillColor=default;align=left;verticalAlign=top;spacingLeft=4;spacingRight=4;overflow=hidden;rotatable=0;points=[[0,0.5],[1,0.5]];portConstraint=eastwest;whiteSpace=wrap;html=1;" vertex="1" parent="_Bd6D42fP3kql52XD8L3-43">
          <mxGeometry y="26" width="210" height="24" as="geometry" />
        </mxCell>
        <mxCell id="_Bd6D42fP3kql52XD8L3-45" value="" style="line;strokeWidth=1;fillColor=default;align=left;verticalAlign=middle;spacingTop=-1;spacingLeft=3;spacingRight=3;rotatable=0;labelPosition=right;points=[];portConstraint=eastwest;strokeColor=inherit;" vertex="1" parent="_Bd6D42fP3kql52XD8L3-43">
          <mxGeometry y="50" width="210" height="8" as="geometry" />
        </mxCell>
        <mxCell id="_Bd6D42fP3kql52XD8L3-46" value="+ TipoMonstruos : enum" style="text;strokeColor=none;fillColor=default;align=left;verticalAlign=top;spacingLeft=4;spacingRight=4;overflow=hidden;rotatable=0;points=[[0,0.5],[1,0.5]];portConstraint=eastwest;whiteSpace=wrap;html=1;gradientColor=none;" vertex="1" parent="_Bd6D42fP3kql52XD8L3-43">
          <mxGeometry y="58" width="210" height="32" as="geometry" />
        </mxCell>
        <mxCell id="_Bd6D42fP3kql52XD8L3-47" value="Partida" style="swimlane;fontStyle=1;align=center;verticalAlign=top;childLayout=stackLayout;horizontal=1;startSize=26;horizontalStack=0;resizeParent=1;resizeParentMax=0;resizeLast=0;collapsible=1;marginBottom=0;whiteSpace=wrap;html=1;" vertex="1" parent="1">
          <mxGeometry x="470" y="360" width="210" height="90" as="geometry" />
        </mxCell>
        <mxCell id="_Bd6D42fP3kql52XD8L3-48" value="" style="text;strokeColor=none;fillColor=default;align=left;verticalAlign=top;spacingLeft=4;spacingRight=4;overflow=hidden;rotatable=0;points=[[0,0.5],[1,0.5]];portConstraint=eastwest;whiteSpace=wrap;html=1;" vertex="1" parent="_Bd6D42fP3kql52XD8L3-47">
          <mxGeometry y="26" width="210" height="24" as="geometry" />
        </mxCell>
        <mxCell id="_Bd6D42fP3kql52XD8L3-49" value="" style="line;strokeWidth=1;fillColor=default;align=left;verticalAlign=middle;spacingTop=-1;spacingLeft=3;spacingRight=3;rotatable=0;labelPosition=right;points=[];portConstraint=eastwest;strokeColor=inherit;" vertex="1" parent="_Bd6D42fP3kql52XD8L3-47">
          <mxGeometry y="50" width="210" height="8" as="geometry" />
        </mxCell>
        <mxCell id="_Bd6D42fP3kql52XD8L3-50" value="+ main (String[] args) : void" style="text;strokeColor=none;fillColor=default;align=left;verticalAlign=top;spacingLeft=4;spacingRight=4;overflow=hidden;rotatable=0;points=[[0,0.5],[1,0.5]];portConstraint=eastwest;whiteSpace=wrap;html=1;gradientColor=none;" vertex="1" parent="_Bd6D42fP3kql52XD8L3-47">
          <mxGeometry y="58" width="210" height="32" as="geometry" />
        </mxCell>
        <mxCell id="_Bd6D42fP3kql52XD8L3-51" value="Ventanagrafica" style="swimlane;fontStyle=1;align=center;verticalAlign=top;childLayout=stackLayout;horizontal=1;startSize=26;horizontalStack=0;resizeParent=1;resizeParentMax=0;resizeLast=0;collapsible=1;marginBottom=0;whiteSpace=wrap;html=1;" vertex="1" parent="1">
          <mxGeometry x="730" y="360" width="210" height="120" as="geometry" />
        </mxCell>
        <mxCell id="_Bd6D42fP3kql52XD8L3-52" value="" style="text;strokeColor=none;fillColor=default;align=left;verticalAlign=top;spacingLeft=4;spacingRight=4;overflow=hidden;rotatable=0;points=[[0,0.5],[1,0.5]];portConstraint=eastwest;whiteSpace=wrap;html=1;" vertex="1" parent="_Bd6D42fP3kql52XD8L3-51">
          <mxGeometry y="26" width="210" height="24" as="geometry" />
        </mxCell>
        <mxCell id="_Bd6D42fP3kql52XD8L3-53" value="" style="line;strokeWidth=1;fillColor=default;align=left;verticalAlign=middle;spacingTop=-1;spacingLeft=3;spacingRight=3;rotatable=0;labelPosition=right;points=[];portConstraint=eastwest;strokeColor=inherit;" vertex="1" parent="_Bd6D42fP3kql52XD8L3-51">
          <mxGeometry y="50" width="210" height="8" as="geometry" />
        </mxCell>
        <mxCell id="_Bd6D42fP3kql52XD8L3-54" value="+ Ventanagrafica()&amp;nbsp;&lt;br&gt;+ iniciarJuego() : void&lt;br&gt;+ main (String[] args) : void" style="text;strokeColor=none;fillColor=default;align=left;verticalAlign=top;spacingLeft=4;spacingRight=4;overflow=hidden;rotatable=0;points=[[0,0.5],[1,0.5]];portConstraint=eastwest;whiteSpace=wrap;html=1;gradientColor=none;" vertex="1" parent="_Bd6D42fP3kql52XD8L3-51">
          <mxGeometry y="58" width="210" height="62" as="geometry" />
        </mxCell>
        <mxCell id="_Bd6D42fP3kql52XD8L3-55" value="Ventanajuego" style="swimlane;fontStyle=1;align=center;verticalAlign=top;childLayout=stackLayout;horizontal=1;startSize=26;horizontalStack=0;resizeParent=1;resizeParentMax=0;resizeLast=0;collapsible=1;marginBottom=0;whiteSpace=wrap;html=1;" vertex="1" parent="1">
          <mxGeometry x="990" y="360" width="340" height="420" as="geometry" />
        </mxCell>
        <mxCell id="_Bd6D42fP3kql52XD8L3-56" value="- ultimaPosicionPersonaje : Point&lt;br&gt;- iconoFondo : ImageIcon&lt;br&gt;- etiquetaFondo : JLabel&lt;br&gt;- xFondo : int&lt;br&gt;- yFondo : int&lt;br&gt;- MOVIMIENTO_PASO : int&lt;br&gt;- iconoPersonaje : ImageIcon&lt;br&gt;- etiquetaPersonaje : JLabel&lt;br&gt;- etiquetasEnemigos : ArrayList&amp;lt;JLabel&amp;gt;&lt;br&gt;- random : Random&lt;br&gt;- etiquetaTiempo : JLabel&lt;br&gt;- etiquetaVida : JLabel&lt;br&gt;- timer : Timer&lt;br&gt;- tiempo : int&lt;br&gt;- vida : int" style="text;strokeColor=none;fillColor=default;align=left;verticalAlign=top;spacingLeft=4;spacingRight=4;overflow=hidden;rotatable=0;points=[[0,0.5],[1,0.5]];portConstraint=eastwest;whiteSpace=wrap;html=1;" vertex="1" parent="_Bd6D42fP3kql52XD8L3-55">
          <mxGeometry y="26" width="340" height="224" as="geometry" />
        </mxCell>
        <mxCell id="_Bd6D42fP3kql52XD8L3-57" value="" style="line;strokeWidth=1;fillColor=default;align=left;verticalAlign=middle;spacingTop=-1;spacingLeft=3;spacingRight=3;rotatable=0;labelPosition=right;points=[];portConstraint=eastwest;strokeColor=inherit;" vertex="1" parent="_Bd6D42fP3kql52XD8L3-55">
          <mxGeometry y="250" width="340" height="8" as="geometry" />
        </mxCell>
        <mxCell id="_Bd6D42fP3kql52XD8L3-58" value="+ Ventanajuego()&lt;br&gt;+ generarEnemigos() : void&lt;br&gt;+ moverEnemigos() : void&lt;br&gt;+ actualizarEtiquetas() : void&lt;br&gt;+ keyPressed(KeyEvent) : void&lt;br&gt;+ actualizarPosicionPersonajeYFondo(int, int) : void&lt;br&gt;+ moverEnemigosHaciaUltimaPosicion() : void&lt;br style=&quot;border-color: var(--border-color);&quot;&gt;+ keyTyped(KeyEvent) : void&lt;br style=&quot;border-color: var(--border-color);&quot;&gt;+ keyReleased(KeyEvent) : void&lt;br&gt;+ main (String[] args) : void" style="text;strokeColor=none;fillColor=default;align=left;verticalAlign=top;spacingLeft=4;spacingRight=4;overflow=hidden;rotatable=0;points=[[0,0.5],[1,0.5]];portConstraint=eastwest;whiteSpace=wrap;html=1;gradientColor=none;" vertex="1" parent="_Bd6D42fP3kql52XD8L3-55">
          <mxGeometry y="258" width="340" height="162" as="geometry" />
        </mxCell>
        <mxCell id="_Bd6D42fP3kql52XD8L3-68" style="edgeStyle=orthogonalEdgeStyle;rounded=0;orthogonalLoop=1;jettySize=auto;html=1;exitX=0.5;exitY=0;exitDx=0;exitDy=0;entryX=0.5;entryY=1;entryDx=0;entryDy=0;entryPerimeter=0;" edge="1" parent="1" source="_Bd6D42fP3kql52XD8L3-23" target="_Bd6D42fP3kql52XD8L3-17">
          <mxGeometry relative="1" as="geometry" />
        </mxCell>
        <mxCell id="_Bd6D42fP3kql52XD8L3-69" style="edgeStyle=orthogonalEdgeStyle;rounded=0;orthogonalLoop=1;jettySize=auto;html=1;exitX=0.5;exitY=0;exitDx=0;exitDy=0;entryX=0.5;entryY=1;entryDx=0;entryDy=0;entryPerimeter=0;" edge="1" parent="1" source="_Bd6D42fP3kql52XD8L3-35" target="_Bd6D42fP3kql52XD8L3-17">
          <mxGeometry relative="1" as="geometry" />
        </mxCell>
        <mxCell id="_Bd6D42fP3kql52XD8L3-70" style="edgeStyle=orthogonalEdgeStyle;rounded=0;orthogonalLoop=1;jettySize=auto;html=1;exitX=0.5;exitY=0;exitDx=0;exitDy=0;entryX=0.5;entryY=1;entryDx=0;entryDy=0;entryPerimeter=0;" edge="1" parent="1" source="_Bd6D42fP3kql52XD8L3-39" target="_Bd6D42fP3kql52XD8L3-17">
          <mxGeometry relative="1" as="geometry" />
        </mxCell>
        <mxCell id="_Bd6D42fP3kql52XD8L3-71" style="edgeStyle=orthogonalEdgeStyle;rounded=0;orthogonalLoop=1;jettySize=auto;html=1;entryX=0.5;entryY=1;entryDx=0;entryDy=0;entryPerimeter=0;" edge="1" parent="1" source="_Bd6D42fP3kql52XD8L3-47" target="_Bd6D42fP3kql52XD8L3-17">
          <mxGeometry relative="1" as="geometry">
            <Array as="points">
              <mxPoint x="575" y="310" />
              <mxPoint x="295" y="310" />
            </Array>
          </mxGeometry>
        </mxCell>
        <mxCell id="_Bd6D42fP3kql52XD8L3-73" style="edgeStyle=orthogonalEdgeStyle;rounded=0;orthogonalLoop=1;jettySize=auto;html=1;exitX=0.5;exitY=0;exitDx=0;exitDy=0;entryX=0.5;entryY=1;entryDx=0;entryDy=0;entryPerimeter=0;" edge="1" parent="1" source="_Bd6D42fP3kql52XD8L3-51" target="_Bd6D42fP3kql52XD8L3-17">
          <mxGeometry relative="1" as="geometry" />
        </mxCell>
        <mxCell id="_Bd6D42fP3kql52XD8L3-74" style="edgeStyle=none;rounded=0;orthogonalLoop=1;jettySize=auto;html=1;entryX=0.471;entryY=-0.007;entryDx=0;entryDy=0;entryPerimeter=0;" edge="1" parent="1" source="_Bd6D42fP3kql52XD8L3-55" target="_Bd6D42fP3kql52XD8L3-55">
          <mxGeometry relative="1" as="geometry" />
        </mxCell>
        <mxCell id="_Bd6D42fP3kql52XD8L3-75" style="edgeStyle=orthogonalEdgeStyle;rounded=0;orthogonalLoop=1;jettySize=auto;html=1;exitX=0.5;exitY=0;exitDx=0;exitDy=0;entryX=0.5;entryY=1;entryDx=0;entryDy=0;entryPerimeter=0;" edge="1" parent="1" source="_Bd6D42fP3kql52XD8L3-55" target="_Bd6D42fP3kql52XD8L3-17">
          <mxGeometry relative="1" as="geometry" />
        </mxCell>
        <mxCell id="_Bd6D42fP3kql52XD8L3-77" value="main" style="swimlane;fontStyle=1;align=center;verticalAlign=top;childLayout=stackLayout;horizontal=1;startSize=26;horizontalStack=0;resizeParent=1;resizeParentMax=0;resizeLast=0;collapsible=1;marginBottom=0;whiteSpace=wrap;html=1;" vertex="1" parent="1">
          <mxGeometry x="1460" y="360" width="210" height="90" as="geometry" />
        </mxCell>
        <mxCell id="_Bd6D42fP3kql52XD8L3-78" value="" style="text;strokeColor=none;fillColor=default;align=left;verticalAlign=top;spacingLeft=4;spacingRight=4;overflow=hidden;rotatable=0;points=[[0,0.5],[1,0.5]];portConstraint=eastwest;whiteSpace=wrap;html=1;" vertex="1" parent="_Bd6D42fP3kql52XD8L3-77">
          <mxGeometry y="26" width="210" height="24" as="geometry" />
        </mxCell>
        <mxCell id="_Bd6D42fP3kql52XD8L3-79" value="" style="line;strokeWidth=1;fillColor=default;align=left;verticalAlign=middle;spacingTop=-1;spacingLeft=3;spacingRight=3;rotatable=0;labelPosition=right;points=[];portConstraint=eastwest;strokeColor=inherit;" vertex="1" parent="_Bd6D42fP3kql52XD8L3-77">
          <mxGeometry y="50" width="210" height="8" as="geometry" />
        </mxCell>
        <mxCell id="_Bd6D42fP3kql52XD8L3-80" value="+ main (String[] args) : void" style="text;strokeColor=none;fillColor=default;align=left;verticalAlign=top;spacingLeft=4;spacingRight=4;overflow=hidden;rotatable=0;points=[[0,0.5],[1,0.5]];portConstraint=eastwest;whiteSpace=wrap;html=1;gradientColor=none;" vertex="1" parent="_Bd6D42fP3kql52XD8L3-77">
          <mxGeometry y="58" width="210" height="32" as="geometry" />
        </mxCell>
        <mxCell id="_Bd6D42fP3kql52XD8L3-85" style="edgeStyle=none;rounded=0;orthogonalLoop=1;jettySize=auto;html=1;entryX=0.5;entryY=1;entryDx=0;entryDy=0;entryPerimeter=0;" edge="1" parent="1" source="_Bd6D42fP3kql52XD8L3-77" target="_Bd6D42fP3kql52XD8L3-16">
          <mxGeometry relative="1" as="geometry" />
        </mxCell>
        <mxCell id="_Bd6D42fP3kql52XD8L3-88" style="edgeStyle=orthogonalEdgeStyle;rounded=0;orthogonalLoop=1;jettySize=auto;html=1;entryX=0.5;entryY=1;entryDx=0;entryDy=0;entryPerimeter=0;" edge="1" parent="1" source="_Bd6D42fP3kql52XD8L3-19" target="_Bd6D42fP3kql52XD8L3-17">
          <mxGeometry relative="1" as="geometry">
            <Array as="points">
              <mxPoint x="-470" y="300" />
              <mxPoint x="295" y="300" />
            </Array>
          </mxGeometry>
        </mxCell>
      </root>
    </mxGraphModel>
  </diagram>
</mxfile>
